<?xml version="1.0" encoding="utf-8"?>
<!-- Generator: Adobe Illustrator 21.1.0, SVG Export Plug-In . SVG Version: 6.00 Build 0)  -->
<svg version="1.1" id="Laag_1" xmlns="http://www.w3.org/2000/svg" xmlns:xlink="http://www.w3.org/1999/xlink" x="0px" y="0px"
	 viewBox="0 0 315.2 80" style="enable-background:new 0 0 315.2 80;" xml:space="preserve">
<style type="text/css">
	.st0{fill:#FFFFFF;}
	.st1{clip-path:url(#SVGID_2_);fill:#FFFFFF;}
	.st2{opacity:0.5;clip-path:url(#SVGID_2_);}
	.st3{clip-path:url(#SVGID_4_);}
	.st4{clip-path:url(#SVGID_6_);fill:#FFFFFF;}
</style>
<g>
	<polygon class="st0" points="155,7.4 164.1,30.4 164.1,7.4 170.3,7.4 170.3,40 161.5,40 152.2,15.7 152.2,40 146,40 146,7.4 	"/>
	<polygon class="st0" points="232.8,7.4 238.3,30.2 243.8,7.4 254.4,7.4 254.4,40 247.8,40 247.8,14.3 241.2,40 235,40 228.6,14.4 
		228.6,40 222.1,40 222.1,7.4 	"/>
	<g>
		<defs>
			<rect id="SVGID_1_" x="0" width="315.2" height="80"/>
		</defs>
		<clipPath id="SVGID_2_">
			<use xlink:href="#SVGID_1_"  style="overflow:visible;"/>
		</clipPath>
		<path class="st1" d="M270.4,12.2v9.3c0,0,4.4,0.6,6-1.4c1-1.7,0.9-4.4,0.3-6.2C275.6,11.7,272.6,12.3,270.4,12.2 M277.3,7.4
			c2.6,0.3,5,1.8,5.9,4.2c1.1,3,1.2,7.6-1,10.2c-1.1,1.1-2.6,1.9-4.5,2.2c0.5,0.1,1,0.3,1.6,0.4c2,0.4,3.1,1.4,3.8,2.9
			c1.2,3.1,0.4,7.1,1,10.5l0.4,2.1h-6.7c-1.1-3.6,0.3-8.5-1.3-11.8c-1-1.9-4-1.8-6.3-1.7V40h-6.5l0-32.6
			C263.9,7.4,274.7,7.2,277.3,7.4"/>
		<path class="st1" d="M93.3,13.3L90,27.8h0h6.6L93.5,14L93.3,13.3z M98,7.4l8.9,32.6H100l-1.9-7.2h-9.4l-2,7.2h-6.6l9-32.6H98z"/>
		<polygon class="st1" points="30,20.2 30,80 0,50 0,0 59.6,0 59.6,49.9 		"/>
		<path class="st1" d="M121.2,25.6V35v0.1c2.6-0.2,5.3,0.6,7.3-0.9c1.6-1.5,1.6-4.4,0.9-6.3C128.1,24.9,124,25.7,121.2,25.6
			 M125.9,20.6c2.3,0,3.1-1.5,3.5-2.7c0.3-1.6,0.2-3.5-1.2-4.8l-0.7-0.5c-0.9-0.7-4.1-0.5-6.3-0.5c0,2.7,0.1,5.7,0,8.4H125.9z
			 M130.8,7.8c1.9,0.3,4.1,2.2,4.7,4.5c0.7,2.8,0.7,6.2-1.4,8.6c-0.9,1-2.3,1.6-3.6,2.1c1,0.3,2,0.7,3,1.2c3.1,1.9,3.2,6.2,2.7,9.6
			c-0.5,2.7-2.9,5.2-5.4,5.8c-1,0.2-2.3,0.3-3.5,0.3h-12.9V7.4C119.4,7.4,127.2,7.2,130.8,7.8"/>
		
			<rect x="177.8" y="18.1" transform="matrix(0.7071 -0.7071 0.7071 0.7071 38.0591 134.0335)" class="st1" width="6" height="5.9"/>
		<path class="st1" d="M201.2,13.3l-3.3,14.5h0h6.6L201.4,14L201.2,13.3z M205.9,7.4l8.9,32.6h-6.9l-1.9-7.2h-9.4l-2,7.2H188l9-32.6
			H205.9z"/>
		<path class="st1" d="M308.3,18c-0.2-6.4-3.3-6.2-4.5-6.2c-1.4,0-3.7,0.7-3.9,6.1v11.5c0.4,5.6,1.8,6.7,4.3,6.7
			c2.6,0,4.2-1.2,4.2-7.2V18 M313.5,11.6c2.2,4.9,1.7,11.2,1.7,16.8c0,2.6-0.6,8-3.8,10.4c-2.3,1.6-4.9,2.1-7.9,2
			c-3.9-0.1-7.8-1.5-9.4-5.4c-1.6-4.2-1.3-10.2-1.3-15.4c0-3.8,0.5-8.6,4-11.2c3.6-2.3,9.3-2.2,13.1-0.6
			C311.3,8.8,312.8,10.1,313.5,11.6"/>
		<g class="st2">
			<g>
				<defs>
					<rect id="SVGID_3_" x="30" y="20.1" width="29.6" height="59.9"/>
				</defs>
				<clipPath id="SVGID_4_">
					<use xlink:href="#SVGID_3_"  style="overflow:visible;"/>
				</clipPath>
				<g class="st3">
					<defs>
						<rect id="SVGID_5_" x="30" y="20.1" width="29.6" height="59.9"/>
					</defs>
					<clipPath id="SVGID_6_">
						<use xlink:href="#SVGID_5_"  style="overflow:visible;"/>
					</clipPath>
					<polygon class="st4" points="30,80 30,20.1 59.6,49.9 					"/>
				</g>
			</g>
		</g>
	</g>
</g>
</svg>
