<?xml version="1.0" encoding="utf-8"?>
<!-- Generator: Adobe Illustrator 21.1.0, SVG Export Plug-In . SVG Version: 6.00 Build 0)  -->
<svg version="1.1" id="Ebene_1" xmlns="http://www.w3.org/2000/svg" xmlns:xlink="http://www.w3.org/1999/xlink" x="0px" y="0px"
	 viewBox="0 0 330 227" style="enable-background:new 0 0 330 227;" xml:space="preserve">
<style type="text/css">
	.st0{fill:#FFFFFF;}
	.st1{fill-rule:evenodd;clip-rule:evenodd;fill:#FFFFFF;}
</style>
<g>
	<path class="st0" d="M298,219.1c-14.9,0-23.7-7.6-24.3-18.4h14c0,3.4,2.1,8.3,11.1,8.5c6,0,8.9-3.5,8.9-6.2
		c-0.4-4.2-5.7-4.6-11.3-5.5c-5.7-0.9-10.4-1.9-14-3.7c-4.4-2.3-7.4-7.3-7.4-12.9c0-9.6,8.3-17.2,22.2-17.2
		c13.4,0,21.9,7.1,22.8,17.5h-13.5c-0.2-2.8-0.7-7.3-8.7-7.3c-5.3,0-8.8,1.1-9.2,4.8c0,5.5,11.2,5.1,19.8,7.4
		c8.3,2.1,13.6,7.3,13.6,14.5C322,214,311.2,219.1,298,219.1L298,219.1z"/>
	<polygon class="st0" points="40.8,130.3 87.4,103.5 112,146 49.9,146 40.8,130.3 	"/>
	<polygon class="st0" points="145.1,217.9 131.8,217.9 131.8,164.2 145.1,164.2 145.1,217.9 	"/>
	<path class="st1" d="M19.6,191.3c0,8.3,7.1,15.2,15.4,15.2c8.5,0,15.6-6.9,15.6-15.2c0-8.3-7.1-15.4-15.6-15.4
		C26.7,175.9,19.6,183,19.6,191.3L19.6,191.3z M34.6,219.1c-15.2,0-27.8-12.6-27.8-27.8c0-15.4,12.6-27.6,27.8-27.6
		c5.8,0,11.3,1.6,15.9,4.8v-4.3h13.1v53.7H50.6v-3.6C46.1,217.4,40.6,219.1,34.6,219.1L34.6,219.1z"/>
	<polygon class="st0" points="213.5,146 148.7,33.6 195.2,6.7 275.8,146 213.5,146 	"/>
	<path class="st1" d="M81,191.3c0,8.3,7.1,15.2,15.6,15.2c8.3,0,15.4-6.9,15.4-15.2c0-8.3-7.1-15.4-15.4-15.4
		C88.1,175.9,81,183,81,191.3L81,191.3z M96.2,219.1c-15.4,0-28-12.6-28-27.8c0-15.4,12.6-27.6,28-27.6c5.8,0,11.2,1.6,15.8,4.8V146
		h13.3v71.9H112v-3.6C107.4,217.4,102.1,219.1,96.2,219.1L96.2,219.1z"/>
	<polygon class="st0" points="95.2,82.4 141.9,55.7 194.2,146 145.1,146 145.1,159.3 131.8,159.3 131.8,146 95.2,82.4 	"/>
	<path class="st1" d="M224.6,191.3c0,8.3,7.1,15.2,15.4,15.2c8.3,0,15.2-6.9,15.2-15.2c0-8.3-6.9-15.4-15.2-15.4
		C231.7,175.9,224.6,183,224.6,191.3L224.6,191.3z M239.5,219.1c-15.2,0-27.8-12.6-27.8-27.8c0-15.4,12.6-27.6,27.8-27.6
		c5.8,0,11.3,1.6,15.8,4.8v-4.3h13.3v53.7h-13.3v-3.6C250.8,217.4,245.5,219.1,239.5,219.1L239.5,219.1z"/>
	<path class="st1" d="M163.4,191.3c0,8.3,7.1,15.2,15.2,15.2c8.5,0,15.6-6.9,15.6-15.2c0-8.3-7.1-15.4-15.6-15.4
		C170.4,175.9,163.4,183,163.4,191.3L163.4,191.3z M194.2,146h13.1v71.9h-13.1v-3.6c-4.4,3-9.9,4.8-15.9,4.8
		c-15.2,0-27.8-12.6-27.8-27.8c0-15.4,12.6-27.6,27.8-27.6c6,0,11.3,1.6,15.9,4.8V146L194.2,146z"/>
</g>
</svg>
