<?xml version="1.0" encoding="utf-8"?>
<!-- Generator: Adobe Illustrator 21.1.0, SVG Export Plug-In . SVG Version: 6.00 Build 0)  -->
<svg version="1.1" id="图层_1" xmlns="http://www.w3.org/2000/svg" xmlns:xlink="http://www.w3.org/1999/xlink" x="0px" y="0px"
	 viewBox="0 0 125.1 31.8" style="enable-background:new 0 0 125.1 31.8;" xml:space="preserve">
<style type="text/css">
	.st0{fill-rule:evenodd;clip-rule:evenodd;fill:#FFFFFF;}
</style>
<g>
	<path class="st0" d="M116.2,26.2c0.2,0,0.5-0.1,0.6-0.3c0.1-0.1,0.2-0.3,0.2-0.5c0-0.1,0-0.3-0.1-0.4c-0.1-0.1-0.2-0.2-0.3-0.2
		c-0.1-0.1-0.3-0.1-0.6-0.1h-1.2v2.7h0.4v-1.2h0.6c0,0,0.1,0.1,0.1,0.1c0.1,0,0.4,0.4,0.5,0.6l0.4,0.6h0.5l-0.5-0.7
		C116.6,26.5,116.3,26.2,116.2,26.2 M115.9,25.9L115.9,25.9h-0.8V25h0.7h0.1c0.2,0,0.4,0,0.5,0.1c0.1,0.1,0.1,0.2,0.1,0.3
		c0,0.1,0,0.2-0.1,0.3c0,0.1-0.1,0.1-0.2,0.1C116.2,25.8,116.1,25.9,115.9,25.9"/>
	<path class="st0" d="M115.8,23.6c-1.3,0-2.4,1.1-2.4,2.4c0,1.3,1.1,2.4,2.4,2.4c1.3,0,2.4-1.1,2.4-2.4
		C118.2,24.7,117.2,23.6,115.8,23.6 M115.8,28c-1.1,0-2-0.9-2-2c0-1.1,0.9-2,2-2c1.1,0,2,0.9,2,2C117.8,27.1,116.9,28,115.8,28"/>
	<path class="st0" d="M20.7,14.5c2.8-5.5,14.1-5.9,20.3-1.9l4.9-10C23.7-1.4,4.1,6.2,2.9,16.1c-0.6,9.5,12,14,30.7,11.7l5-10.3
		C31.2,21.2,18.6,20.8,20.7,14.5"/>
	<path class="st0" d="M77.4,10.9L81,3.2c-10.4-3.7-32.7-1.9-36.2,7.4c-3.2,9.6,19.4,5.6,16.2,9.5c-2.7,2.3-13,0.3-16.4-2l-3.9,8.2
		c17.3,5,38.9,0.8,38-9.4c-1.4-6.9-18.3-4.4-17-7.3C63,8,72.3,7.7,77.4,10.9"/>
	<polygon class="st0" points="85.7,1.4 81.6,10.1 92.2,10.1 83.3,28.4 99.7,28.4 108.6,10.1 118.3,10.1 122.5,1.4 	"/>
</g>
</svg>
