<?xml version="1.0" encoding="utf-8"?>
<!-- Generator: Adobe Illustrator 21.1.0, SVG Export Plug-In . SVG Version: 6.00 Build 0)  -->
<svg version="1.1" id="Laag_1" xmlns="http://www.w3.org/2000/svg" xmlns:xlink="http://www.w3.org/1999/xlink" x="0px" y="0px"
	 viewBox="0 0 801 294" style="enable-background:new 0 0 801 294;" xml:space="preserve">
<style type="text/css">
	.st0{fill:#FFFFFF;}
</style>
<path class="st0" d="M262.1,238.3c3.1,3.1,4.7,7.2,4.7,11.4c0,4.9-2.2,8.8-4.7,11.3c-4.8,4.8-11.3,9.7-19.8,13.3
	c-7.1,3-15,4.6-23.2,4.6H145H70.8c-16.7,0-31.9-6.8-42.9-17.8c-11-11-17.8-26.1-17.8-42.9v-74.1V70c0-16.7,6.8-31.9,17.8-42.9
	c11-11,26.1-17.8,42.9-17.8H145h74.1c8.2,0,16.1,1.6,23.2,4.6c9.8,4.1,16.1,9.1,22.1,15.6c2.4,2.6,4.7,6.4,4.7,11.4
	c0,4.1-1.6,8.2-4.7,11.3c-3.1,3.1-7.2,4.7-11.3,4.7c-4.1,0-8.3-1.6-11.4-4.7c-4.3-4.3-6.6-6.5-11.5-8.6c-3.4-1.4-7.2-2.2-11.1-2.2
	H145H70.8c-7.9,0-15,3.2-20.2,8.4C45.5,55,42.3,62.1,42.3,70v74.1v74.1c0,7.9,3.2,15,8.4,20.2c5.2,5.2,12.3,8.4,20.2,8.4H145h74.1
	c3.9,0,7.7-0.8,11.1-2.3c3.1-1.3,6.3-3.3,9.2-6.2c3.1-3.1,7.2-4.7,11.3-4.7C254.8,233.6,258.9,235.2,262.1,238.3z M218.6,219.2
	c-0.6-11.7-8.5-29.7-28.4-32.1h-70.7l81.5-78c3.4-3.3,11.2-14.4,5.7-26.4c-4.4-9.6-11.8-13.7-24.7-13.7H80.4
	c0.4,13.5,7.1,29.5,25,32.4h58L77.7,182c-3.5,3.3-9.2,13.6-4.7,24c4.1,9.4,10.9,13.2,23.7,13.2H218.6z M450.8,145.7v59.8
	c0,22.1-6.8,41.3-22.1,56.7c-13.8,13.8-31.2,19.5-50.3,19.5c-37.5,0-56.8-29-56.8-29c10.1-10.1,24.1-16.2,37.8-8
	c2.3,1.4,9.2,5.2,19.1,5.2c34.7,0,40.4-31,40.4-40.3c-12,7.3-25.6,10.9-40.7,10.9h0c-19.6,0-36.8-6.2-51.1-18.5l-0.2-0.2
	c-14-13.5-21.2-30.1-21.3-49.4c-0.1-4-0.1-16.7,0-19.6c0-19,7.2-35.5,21.3-49.1c14.3-13.7,31.5-20.6,51.3-20.6h0h0
	c26.3,0,45.6,13,54.5,23.8c2.3,2.8,3.6,6.3,3.6,10.2c0,4.5-1.8,8.5-4.7,11.4c-2.9,2.9-7,4.7-11.4,4.7c-4.4,0-8.6-1.8-11.3-4.6
	c-10-10.4-19.5-13.7-30.7-13.7c-11.1,0-20.4,3.7-28.3,11.3c-7.9,7.4-11.6,15.9-11.7,26.7c-0.2,4.7-0.2,14.7,0,19.3
	c0.1,11,3.8,19.6,11.7,27.2c8.2,7.5,17.5,11.2,28.4,11.2c10.9,0,20.2-3.7,28.5-11.2c4.3-4.1,7.4-8.6,9.3-13.7
	c1.5-4,4.7-12.5,15.4-16.8C440.4,145.3,450.8,145.7,450.8,145.7z M602.4,148.9c-10.7,4.3-13.9,12.7-15.4,16.8c-1.9,5-5,9.5-9.3,13.7
	c-8.3,7.6-17.6,11.2-28.5,11.2c-10.9,0-20.2-3.7-28.4-11.2c-7.9-7.5-11.6-16.1-11.7-27.2c-0.2-4.5-0.2-14.5,0-19.3
	c0.1-10.8,3.8-19.2,11.7-26.7c7.9-7.6,17.2-11.3,28.4-11.3c11.1,0,20.7,3.3,30.7,13.7c2.7,2.8,6.9,4.6,11.3,4.6
	c4.5,0,8.5-1.8,11.4-4.7c2.9-2.9,4.7-7,4.7-11.4c0-3.8-1.3-7.4-3.6-10.2c-8.9-10.8-28.2-23.8-54.5-23.8h0h0
	c-19.8,0-37.1,6.9-51.3,20.6c-14.1,13.5-21.3,30.1-21.3,49.1c-0.1,3-0.1,15.7,0,19.6c0.1,19.3,7.3,35.9,21.3,49.4l0.2,0.2
	c14.3,12.2,31.5,18.4,51.1,18.5h0c15.1,0,28.7-3.6,40.7-10.9c0,9.2-5.7,40.3-40.4,40.3c-9.9,0-16.8-3.8-19.1-5.2
	c-13.7-8.2-27.8-2.1-37.8,8c0,0,19.3,29,56.8,29c19.1,0,36.5-5.7,50.3-19.5c15.3-15.3,22.1-34.6,22.1-56.7v-59.8
	C621.8,145.7,611.4,145.3,602.4,148.9z M792.9,132.9c0-19.1-7.2-35.7-21.3-49.2c-14.3-13.7-31.5-20.6-51.3-20.6h0h0
	c-19.8,0-37.1,6.9-51.3,20.6c-14.1,13.5-21.3,30.1-21.3,49.1c-0.1,3-0.1,15.7,0,19.6c0.1,19.3,7.3,35.9,21.3,49.4l0.2,0.2
	c14.3,12.2,31.5,18.4,51.1,18.5h0c19.6,0,36.8-6.2,51.1-18.4l0.2-0.2c14-13.5,21.2-30.1,21.3-49.3C793,148.5,793,135.8,792.9,132.9
	 M720.2,190.6c-10.9,0-20.2-3.7-28.4-11.2c-7.9-7.5-11.6-16.1-11.7-27.2c-0.2-4.5-0.2-14.5,0-19.3c0.1-10.8,3.8-19.2,11.7-26.7
	c7.9-7.6,17.2-11.3,28.3-11.3c11.1,0,20.4,3.7,28.4,11.4c7.9,7.4,11.6,15.9,11.7,26.8c0.1,4.4,0.2,14.4,0,19.3
	c-0.1,10.9-3.8,19.5-11.6,27C740.5,186.9,731.1,190.6,720.2,190.6 M279.7,69c-16.8,0-32.1,14.1-32.1,29.3v120.9
	c16.8,0,32.1-14.1,32.1-29.3V69z"/>
</svg>
